<svg width="673" height="94" viewBox="0 0 673 94" fill="none" xmlns="http://www.w3.org/2000/svg">
<path d="M361.176 63.198V69.928H353.725L361.176 63.198Z" fill="#505050"/>
<path d="M178.833 70.198V-0.401001H186.565L205.686 34.414L224.665 -0.401001H232.397V70.198H224.612V15.833L205.686 46.531L186.565 15.833V70.063L178.833 70.198Z" fill="#505050"/>
<path d="M239.849 -0.401001H247.3V54.698L277.667 -0.401001H285.259V70.063H277.667V15.833L247.159 70.063H239.849V-0.401001Z" fill="#505050"/>
<path d="M292.991 -0.401001H300.583V29.667H323.357V-0.401001H330.809V69.928H323.357V38.833H300.583V69.928H292.991V-0.401001Z" fill="#505050"/>
<path d="M482.749 -0.401001V69.803H490.13V8.375H513.011V69.803H520.603V-0.401001H482.749Z" fill="#505050"/>
<path d="M353.725 69.928V8.5H338.4V-0.401001H376.5V8.5H361.176V63.198L353.725 69.928Z" fill="#505050"/>
<path d="M433.438 69.792C438.942 62.446 475.895 -0.401001 475.895 -0.401001H467.319L424.651 69.747C427.191 69.747 431.188 69.928 433.438 69.792Z" fill="#505050"/>
<path d="M433.185 -0.401001H424.651L467.319 69.792L475.896 69.776L433.185 -0.401001Z" fill="#505050"/>
<path d="M424.651 -0.401001H433.185L427.621 4.48499L424.651 -0.401001Z" fill="#505050"/>
<path d="M602.593 -0.401001L592.937 8H604.111V61.625H581.336V18.093L573.744 24.698V69.994L611.703 69.995V-0.401001H602.593Z" fill="#505050"/>
<path d="M57.039 14.274L67.159 -0.401001H111.336L96.661 17.149H56.91L57.039 14.274Z" fill="#505050"/>
<path d="M56.8871 14.274L46.769 -0.401001H2.59204L17.2671 17.149H57.0181L56.8871 14.274Z" fill="#505050"/>
<path d="M67.159 17.1489H46.613V93.668H67.159V17.1489Z" fill="#505050"/>
<path d="M96.646 23.23L114.271 2.53503L114.421 70.0381L96.646 84.8661V23.23Z" fill="#505050"/>
<path d="M17.349 23.23L-0.276001 2.53503L-0.427002 70.0381L17.349 84.8661V23.23Z" fill="#505050"/>
<path d="M383.951 -0.401001H418.22V8H391.543V30.25H399.24L383.951 43V-0.401001Z" fill="#505050"/>
<path d="M383.951 69.792H420.363V61H391.543V38.833H414.317L414.318 30.25H399.24L383.951 43V69.792Z" fill="#505050"/>
<path d="M619.437 70.162V-0.437012H627.169L646.288 34.377L665.269 -0.437012H673V70.162H665.215V15.797L646.288 46.495L627.169 15.797V70.025L619.437 70.162Z" fill="#505050"/>
<path d="M528.3 -0.401001V70.125L535.786 64.983V52H554.687L566.153 44.125V-0.401001H528.3ZM558.667 43H535.786V8.375H558.667V43Z" fill="#505050"/>
<path d="M558.667 38.179V43H553.098L542.701 52H566.153V31.698L558.667 38.179Z" fill="#505050"/>
<path d="M535.786 69.995V58.1L528.3 65.126V70.125L535.786 70.001L535.787 69.995H535.786Z" fill="#505050"/>
<path d="M581.336 8H592.937L602.593 -0.401001H573.744V24.698L581.336 18.093V8Z" fill="#505050"/>
</svg>
